<svg xmlns="http://www.w3.org/2000/svg" xmlns:xlink="http://www.w3.org/1999/xlink" viewBox="0,0,255.99612,255.99612" width="48px" height="48px" fill-rule="nonzero"><g fill-opacity="0.90196" fill="#d54939" fill-rule="nonzero" stroke="none" stroke-width="1" stroke-linecap="butt" stroke-linejoin="miter" stroke-miterlimit="10" stroke-dasharray="" stroke-dashoffset="0" font-family="none" font-weight="none" font-size="none" text-anchor="none" style="mix-blend-mode: normal"><g transform="scale(5.33333,5.33333)"><path d="M24,4l-22.96289,14.0293l0.89258,1.45898c1.152,1.884 3.61305,2.47717 5.49805,1.32617l16.57227,-10.125l16.57227,10.125c1.884,1.151 4.34505,0.55783 5.49805,-1.32617l0.89258,-1.45898l-7.96289,-4.86523v-9.16406h-4c-1.1,0 -2,0.9 -2,2v3.49805zM24,14.21094l-15.00977,9.16992c-0.91,0.56 -1.94023,0.88852 -2.99023,0.97852v18.64063h12v-14c0,-1.66 1.34,-3 3,-3h9v17h6c3.31,0 6,-2.69 6,-6v-12.64062c-1.05,-0.09 -2.08023,-0.41852 -2.99023,-0.97852z"></path></g></g></svg>